<?xml version="1.0" encoding="UTF-8"?>
<svg width="400px" height="400px" viewBox="0 0 400 400" version="1.1" xmlns="http://www.w3.org/2000/svg" xmlns:xlink="http://www.w3.org/1999/xlink">
    <!-- Generator: Sketch 50.2 (55047) - http://www.bohemiancoding.com/sketch -->
    <title>Modus-Mark-White</title>
    <desc>Created with Sketch.</desc>
    <defs></defs>
    <g id="Modus-Mark-White" stroke="none" stroke-width="1" fill="none" fill-rule="evenodd">
        <path d="M159.375,200 C159.375,208.347 157.811,216.324 154.968,223.665 C122.363,207.19 100,173.401 100,134.375 C100,122.567 102.053,111.241 105.81,100.724 C115.397,101.877 124.564,104.39 133.119,108.059 C129.908,116.211 128.125,125.082 128.125,134.375 C128.125,158.84 140.359,180.434 159.033,193.412 C159.25,195.58 159.375,197.775 159.375,200 Z M138.787,110.697 C171.392,127.173 193.75,160.974 193.75,200 C193.75,255.229 148.979,300 93.75,300 L93.75,271.875 C133.446,271.875 165.625,239.695 165.625,200 C165.625,175.529 153.386,153.927 134.705,140.947 C134.49,138.785 134.375,136.594 134.375,134.375 C134.375,126.025 135.942,118.043 138.787,110.697 Z M241.91,232.033 C253.689,255.646 278.068,271.875 306.25,271.875 L306.25,300 C265.108,300 229.775,275.151 214.424,239.646 C224.057,238.339 233.277,235.743 241.91,232.033 Z M235.097,189.806 C226.604,195.196 216.797,198.692 206.258,199.693 C206.411,148.685 244.751,106.668 294.194,100.726 C297.316,109.46 299.236,118.762 299.805,128.427 C266.514,131.388 239.752,157.034 235.097,189.806 Z M271.141,144.58 C279.637,139.183 289.447,135.677 299.996,134.678 C299.832,189.767 255.127,234.375 200,234.375 C198.11,234.375 196.233,234.317 194.369,234.214 C197.379,225.358 199.249,215.978 199.813,206.245 C199.875,206.245 199.937,206.25 200,206.25 C236.229,206.25 266.184,179.44 271.141,144.58 Z" id="Icon" fill="#FFFFFF"></path>
    </g>
</svg>